<svg version="1.1" id="Layer_1" xmlns="http://www.w3.org/2000/svg" xmlns:xlink="http://www.w3.org/1999/xlink" x="0px" y="0px"
	 width="100%" viewBox="0 0 800 800"  xml:space="preserve">
<path fill="none" opacity="1.000000" stroke="none" 
	d="
M432.000000,801.000000 
	C288.000000,801.000000 144.500000,801.000000 1.000000,801.000000 
	C1.000000,534.333313 1.000000,267.666656 1.000000,1.000000 
	C267.666656,1.000000 534.333313,1.000000 801.000000,1.000000 
	C801.000000,267.666656 801.000000,534.333313 801.000000,801.000000 
	C678.166687,801.000000 555.333313,801.000000 432.000000,801.000000 
M13.968487,758.582214 
	C19.243082,760.758484 24.508791,764.790466 29.793671,764.815735 
	C69.931717,765.007935 110.080452,764.756592 150.211517,763.939331 
	C173.836823,763.458252 197.070694,759.171936 220.101334,753.963684 
	C278.273499,740.808289 331.727539,717.079529 380.315887,682.459473 
	C386.636993,677.955566 392.864410,673.320129 399.060944,668.799744 
	C400.011261,669.502136 400.552490,669.885010 401.075592,670.291199 
	C420.829254,685.632568 441.626068,699.395569 463.669678,711.216980 
	C503.500214,732.576843 545.491455,748.224243 589.967651,756.305847 
	C612.293335,760.362610 634.968140,763.751709 657.593445,764.621155 
	C694.373596,766.034363 731.242737,765.150574 768.074341,765.165405 
	C770.870972,765.166504 773.786621,765.013123 776.445374,764.239197 
	C793.530457,759.265747 801.379150,741.645203 794.150940,724.685059 
	C785.084412,703.411621 775.966309,682.159973 766.853699,660.906189 
	C731.454834,578.343567 696.047852,495.784515 660.646667,413.222931 
	C638.030701,360.478668 615.415222,307.734161 592.807617,254.986298 
	C566.781189,194.261536 540.776245,133.527512 514.726074,72.812927 
	C511.425507,65.120461 505.993561,59.285275 497.959717,56.683193 
	C471.601349,48.146004 445.565674,38.481316 417.451904,36.657948 
	C400.580017,35.563690 383.653076,35.073494 367.279968,38.790970 
	C345.790863,43.670033 324.685120,50.290390 303.527283,56.543472 
	C297.033752,58.462593 291.434784,62.456837 288.513031,68.901047 
	C282.195068,82.835999 276.062408,96.857315 270.026154,110.917236 
	C239.911652,181.061371 209.845047,251.226089 179.777313,321.390289 
	C160.854401,365.547668 141.990921,409.730469 123.042389,453.876831 
	C105.142479,495.580078 87.136711,537.237915 69.231247,578.938721 
	C48.560699,627.079285 27.983492,675.260010 7.289561,723.390503 
	C1.493543,736.871094 3.254631,747.483276 13.968487,758.582214 
z"/>
<path fill="#EEC968" opacity="1.000000" stroke="none" 
	d="
M13.704349,758.335327 
	C3.254631,747.483276 1.493543,736.871094 7.289561,723.390503 
	C27.983492,675.260010 48.560699,627.079285 69.231247,578.938721 
	C87.136711,537.237915 105.142479,495.580078 123.042389,453.876831 
	C141.990921,409.730469 160.854401,365.547668 179.777313,321.390289 
	C209.845047,251.226089 239.911652,181.061371 270.026154,110.917236 
	C276.062408,96.857315 282.195068,82.835999 288.513031,68.901047 
	C291.434784,62.456837 297.033752,58.462593 303.527283,56.543472 
	C324.685120,50.290390 345.790863,43.670033 367.279968,38.790970 
	C383.653076,35.073494 400.580017,35.563690 417.451904,36.657948 
	C445.565674,38.481316 471.601349,48.146004 497.959717,56.683193 
	C505.993561,59.285275 511.425507,65.120461 514.726074,72.812927 
	C540.776245,133.527512 566.781189,194.261536 592.807617,254.986298 
	C615.415222,307.734161 638.030701,360.478668 660.646667,413.222931 
	C696.047852,495.784515 731.454834,578.343567 766.853699,660.906189 
	C775.966309,682.159973 785.084412,703.411621 794.150940,724.685059 
	C801.379150,741.645203 793.530457,759.265747 776.445374,764.239197 
	C773.786621,765.013123 770.870972,765.166504 768.074341,765.165405 
	C731.242737,765.150574 694.373596,766.034363 657.593445,764.621155 
	C634.968140,763.751709 612.293335,760.362610 589.967651,756.305847 
	C545.491455,748.224243 503.500214,732.576843 463.669678,711.216980 
	C441.626068,699.395569 420.829254,685.632568 401.075592,670.291199 
	C400.552490,669.885010 400.011261,669.502136 399.060944,668.799744 
	C392.864410,673.320129 386.636993,677.955566 380.315887,682.459473 
	C331.727539,717.079529 278.273499,740.808289 220.101334,753.963684 
	C197.070694,759.171936 173.836823,763.458252 150.211517,763.939331 
	C110.080452,764.756592 69.931717,765.007935 29.793671,764.815735 
	C24.508791,764.790466 19.243082,760.758484 13.704349,758.335327 
M522.227905,234.284637 
	C504.539093,192.987152 486.816742,151.703949 469.229462,110.363266 
	C467.919403,107.283813 466.112518,105.633659 462.942230,104.734901 
	C456.229706,102.831947 449.629944,100.535065 442.959625,98.478767 
	C424.273071,92.718170 405.084778,91.582321 385.766663,93.107803 
	C368.415741,94.477943 351.939392,99.888184 335.651154,105.707764 
	C334.128510,106.251793 332.763458,108.268478 332.056152,109.915337 
	C291.086121,205.304840 250.197754,300.729431 209.291931,396.146515 
	C165.701447,497.825806 122.099464,599.500122 78.518921,701.183716 
	C77.503639,703.552612 76.683228,706.005005 75.813965,708.307190 
	C178.590729,714.591309 272.907776,692.514771 356.142303,630.074951 
	C351.294952,624.672241 346.804077,619.765442 342.420929,614.764160 
	C324.774567,594.629456 309.757385,572.671143 298.020844,548.619507 
	C278.018280,507.628235 269.096741,464.393585 271.706696,418.670227 
	C272.990723,396.175201 275.617310,374.019318 282.133484,352.442535 
	C291.780884,320.497559 306.896423,291.965820 333.215149,270.261292 
	C352.556885,254.310532 374.655975,245.649643 399.538208,245.450516 
	C419.675812,245.289368 438.552032,251.001068 455.610474,262.095581 
	C482.341949,279.481262 499.507812,304.285431 510.954468,333.482361 
	C519.816162,356.085815 524.395081,379.612366 526.173645,403.797516 
	C528.221436,431.644623 527.513123,459.300446 521.516479,486.650665 
	C511.054230,534.368103 488.320374,575.827087 456.767639,612.729248 
	C451.840973,618.491211 446.789337,624.146362 441.789795,629.857361 
	C459.461365,644.400330 492.351105,663.728333 517.649048,674.756836 
	C540.855042,684.873291 564.681091,693.103760 589.393616,698.644653 
	C611.615356,703.627014 634.022156,707.656921 656.851257,708.033813 
	C679.623352,708.409790 702.406433,708.116333 725.522339,708.116333 
	C657.972290,550.632385 590.272156,392.798645 522.227905,234.284637 
M435.520325,317.973694 
	C414.667389,298.062134 390.315643,296.441254 368.617035,314.061554 
	C355.369263,324.819427 346.944916,339.163025 340.862946,354.915680 
	C333.809326,373.184937 330.251709,392.160034 328.734375,411.683105 
	C326.797760,436.601318 328.056366,461.144012 334.561859,485.347412 
	C343.811768,519.761292 361.367432,549.645935 384.273315,576.599304 
	C388.860840,581.997375 393.792816,587.102783 398.747040,592.541870 
	C417.054382,573.472351 432.664093,553.377502 445.000214,530.735962 
	C460.867096,501.614105 469.528198,470.556732 470.855072,437.477814 
	C471.631317,418.125519 469.922699,398.897766 465.902649,379.974091 
	C461.037445,357.072021 452.720459,335.699127 435.520325,317.973694 
z"/>
<path fill="none" opacity="1.000000" stroke="none" 
	d="
M522.400024,234.624786 
	C590.272156,392.798645 657.972290,550.632385 725.522339,708.116333 
	C702.406433,708.116333 679.623352,708.409790 656.851257,708.033813 
	C634.022156,707.656921 611.615356,703.627014 589.393616,698.644653 
	C564.681091,693.103760 540.855042,684.873291 517.649048,674.756836 
	C492.351105,663.728333 459.461365,644.400330 441.789795,629.857361 
	C446.789337,624.146362 451.840973,618.491211 456.767639,612.729248 
	C488.320374,575.827087 511.054230,534.368103 521.516479,486.650665 
	C527.513123,459.300446 528.221436,431.644623 526.173645,403.797516 
	C524.395081,379.612366 519.816162,356.085815 510.954468,333.482361 
	C499.507812,304.285431 482.341949,279.481262 455.610474,262.095581 
	C438.552032,251.001068 419.675812,245.289368 399.538208,245.450516 
	C374.655975,245.649643 352.556885,254.310532 333.215149,270.261292 
	C306.896423,291.965820 291.780884,320.497559 282.133484,352.442535 
	C275.617310,374.019318 272.990723,396.175201 271.706696,418.670227 
	C269.096741,464.393585 278.018280,507.628235 298.020844,548.619507 
	C309.757385,572.671143 324.774567,594.629456 342.420929,614.764160 
	C346.804077,619.765442 351.294952,624.672241 356.142303,630.074951 
	C272.907776,692.514771 178.590729,714.591309 75.813965,708.307190 
	C76.683228,706.005005 77.503639,703.552612 78.518921,701.183716 
	C122.099464,599.500122 165.701447,497.825806 209.291931,396.146515 
	C250.197754,300.729431 291.086121,205.304840 332.056152,109.915337 
	C332.763458,108.268478 334.128510,106.251793 335.651154,105.707764 
	C351.939392,99.888184 368.415741,94.477943 385.766663,93.107803 
	C405.084778,91.582321 424.273071,92.718170 442.959625,98.478767 
	C449.629944,100.535065 456.229706,102.831947 462.942230,104.734901 
	C466.112518,105.633659 467.919403,107.283813 469.229462,110.363266 
	C486.816742,151.703949 504.539093,192.987152 522.400024,234.624786 
z"/>
<path fill="none" opacity="1.000000" stroke="none" 
	d="
M435.767822,318.227173 
	C452.720459,335.699127 461.037445,357.072021 465.902649,379.974091 
	C469.922699,398.897766 471.631317,418.125519 470.855072,437.477814 
	C469.528198,470.556732 460.867096,501.614105 445.000214,530.735962 
	C432.664093,553.377502 417.054382,573.472351 398.747040,592.541870 
	C393.792816,587.102783 388.860840,581.997375 384.273315,576.599304 
	C361.367432,549.645935 343.811768,519.761292 334.561859,485.347412 
	C328.056366,461.144012 326.797760,436.601318 328.734375,411.683105 
	C330.251709,392.160034 333.809326,373.184937 340.862946,354.915680 
	C346.944916,339.163025 355.369263,324.819427 368.617035,314.061554 
	C390.315643,296.441254 414.667389,298.062134 435.767822,318.227173 
z"/>
</svg>